<?xml version="1.0" encoding="UTF-8" standalone="no"?>
<!-- Created with Inkscape (http://www.inkscape.org/) -->

<svg
   xmlns:dc="http://purl.org/dc/elements/1.1/"
   xmlns:cc="http://creativecommons.org/ns#"
   xmlns:rdf="http://www.w3.org/1999/02/22-rdf-syntax-ns#"
   xmlns:svg="http://www.w3.org/2000/svg"
   xmlns="http://www.w3.org/2000/svg"
   xmlns:sodipodi="http://sodipodi.sourceforge.net/DTD/sodipodi-0.dtd"
   xmlns:inkscape="http://www.inkscape.org/namespaces/inkscape"
   width="210mm"
   height="297mm"
   viewBox="0 0 744.09448819 1052.3622047"
   id="svg3592"
   version="1.1"
   inkscape:version="0.91 r13725"
   sodipodi:docname="fada-04.svg">
  <defs
     id="defs3594" />
  <sodipodi:namedview
     id="base"
     pagecolor="#ffffff"
     bordercolor="#666666"
     borderopacity="1.0"
     inkscape:pageopacity="0.0"
     inkscape:pageshadow="2"
     inkscape:zoom="0.49497475"
     inkscape:cx="989.00686"
     inkscape:cy="565.19972"
     inkscape:document-units="px"
     inkscape:current-layer="layer1"
     showgrid="false"
     inkscape:window-width="1366"
     inkscape:window-height="700"
     inkscape:window-x="-4"
     inkscape:window-y="0"
     inkscape:window-maximized="1" />
  <metadata
     id="metadata3597">
    <rdf:RDF>
      <cc:Work
         rdf:about="">
        <dc:format>image/svg+xml</dc:format>
        <dc:type
           rdf:resource="http://purl.org/dc/dcmitype/StillImage" />
        <dc:title></dc:title>
      </cc:Work>
    </rdf:RDF>
  </metadata>
  <g
     inkscape:label="Camada 1"
     inkscape:groupmode="layer"
     id="layer1">
    <path
       style="fill:#000000"
       d="m 610.1879,1048.8468 c -7.09023,-2.2709 -16.59142,-7.4001 -19.66336,-10.6154 -1.35928,-1.4226 -4.71749,-6.5114 -7.46279,-11.3084 -7.00452,-12.2395 -11.39788,-17.6501 -22.10547,-27.22282 -5.13188,-4.58808 -11.01332,-10.36997 -13.06977,-12.84872 -3.52865,-4.25317 -3.71004,-4.79034 -3.22273,-9.54278 0.28404,-2.76967 2.29343,-9.19807 4.46541,-14.28514 2.17199,-5.08717 3.94905,-9.96114 3.94905,-10.83109 0,-3.60998 -12.53675,-27.3784 -18.65933,-35.37624 -3.51645,-4.59352 -8.46036,-11.571 -10.98631,-15.50553 -2.52604,-3.93452 -8.76444,-11.54938 -13.8632,-16.92176 -5.09866,-5.37237 -14.28195,-16.5755 -20.40724,-24.89576 -6.12529,-8.32027 -11.38413,-15.15404 -11.68638,-15.18621 -0.30224,-0.032 -1.28897,2.2892 -2.1928,5.15859 -3.52381,11.18646 -9.11792,13.52838 -15.48067,6.48073 -1.89076,-2.09431 -3.90014,-5.47403 -4.46522,-7.51049 -2.38523,-8.59558 -0.59113,-26.8766 4.33632,-44.18532 4.00928,-14.08366 4.65977,-21.98625 3.43588,-41.74445 -0.59927,-9.67438 -1.3559,-20.35003 -1.68158,-23.72365 l -0.592,-6.13389 -8.52882,-7.43935 c -9.96907,-8.6957 -24.25712,-17.57435 -49.81881,-30.95756 -28.38523,-14.86146 -42.84885,-23.68246 -52.78161,-32.19014 -2.93084,-2.51025 -7.28875,-5.55302 -9.68425,-6.76167 -6.69695,-3.37887 -7.14243,-3.90059 -5.02003,-5.87929 0.99835,-0.93071 3.29943,-2.45972 5.11358,-3.39779 1.81405,-0.93809 3.73415,-2.26875 4.26678,-2.95705 0.53264,-0.68829 5.98003,-5.68045 12.10532,-11.09368 l 11.1369,-9.84223 22.27378,0.51618 c 25.77435,0.59731 27.38756,0.28657 32.2629,-6.21486 1.76554,-2.35444 3.83555,-5.04894 4.60002,-5.98779 0.76438,-0.93885 1.38989,-2.4058 1.38989,-3.25989 0,-1.9376 3.94972,-9.085 5.02041,-9.085 0.43453,0 0.79014,-0.79273 0.79014,-1.76162 0,-1.28809 2.06652,-2.61545 7.68804,-4.938 7.56476,-3.12543 15.55417,-9.48903 15.55417,-12.38899 0,-0.69432 0.40199,-1.26239 0.89327,-1.26239 2.61805,0 6.95388,-22.76389 7.69134,-40.38082 0.33846,-8.08489 0.83333,-14.89294 1.09964,-15.12901 0.26632,-0.23606 10.94321,-3.93602 23.72643,-8.22215 12.78321,-4.28612 40.23807,-13.60789 61.0108,-20.71503 36.04644,-12.33285 38.12187,-12.92264 45.516,-12.93457 7.09184,-0.0114 8.45161,0.32469 16.07079,3.97283 13.32912,6.38208 18.94192,12.61214 21.30769,23.65124 2.28074,10.64167 -1.52847,21.71881 -14.3236,41.65375 -27.54702,42.9185 -47.61648,99.21494 -61.84061,173.46802 -5.47529,28.5824 -7.06709,35.60039 -8.90225,39.24835 -1.74027,3.45938 -8.80154,12.25916 -19.42275,24.20461 l -7.73471,8.69899 7.0419,14.07475 c 10.33562,20.65791 26.07205,54.04489 28.10197,59.62213 0.96997,2.66501 3.00211,6.17663 4.51586,7.80354 2.64893,2.84682 19.46642,37.25367 27.95205,57.1867 9.56117,22.45985 20.90857,55.16459 23.55828,67.89802 2.08318,10.0114 9.55884,23.692 17.03383,31.172 4.62713,4.6305 6.27607,11.3125 3.89181,15.7706 -0.88321,1.6515 -2.0642,1.8683 -9.92636,1.8224 -5.74151,-0.034 -10.833,-0.6636 -14.2776,-1.7669 z M 517.25056,722.18554 c 1.39889,-5.0391 1.1747,-19.42455 -0.58783,-37.71796 -3.72873,-38.70145 1.13732,-77.93515 12.12546,-97.76345 3.05693,-5.51637 2.97258,-5.51857 -4.39936,-0.11472 -16.64239,12.19935 -44.31428,26.73818 -57.01624,29.95636 -4.26108,1.07958 -12.54111,2.19076 -18.40009,2.4693 -5.85897,0.27853 -12.07733,0.7226 -13.81856,0.98683 l -3.16588,0.48041 9.95038,10.85493 c 25.20347,27.49467 55.58995,63.56759 57.6033,68.38293 0.81067,1.93877 2.9444,9.36466 4.7418,16.50204 1.7974,7.13739 3.77512,13.58846 4.39481,14.33573 0.93889,1.1321 1.6685,0.83352 4.37273,-1.78943 1.7853,-1.73149 3.67498,-4.69382 4.19948,-6.58297 z m -217.8043,-63.93897 c -2.44983,-0.98092 -3.79943,-1.99314 -3.17373,-2.38009 0.59888,-0.37039 1.9722,-3.53552 3.052,-7.03365 1.83545,-5.94664 1.96309,-8.92228 1.96309,-45.75652 l 0,-39.39626 6.6526,-18.40511 c 12.71165,-35.16796 18.00497,-53.35255 17.3813,-59.71152 l -0.30747,-3.13494 -3.45612,3.32333 c -3.72457,3.58146 -8.26096,9.9946 -10.91958,15.43701 -2.04551,4.18732 -2.3464,4.66608 -11.23567,17.87376 -10.35208,15.38112 -15.50972,21.69019 -23.80467,29.11925 -7.89703,7.07271 -11.87813,10.14697 -16.43689,12.69266 -1.59791,0.8923 -4.90682,3.48076 -7.35307,5.75211 -2.44624,2.27136 -5.74644,4.80178 -7.33369,5.62316 -1.58734,0.82137 -3.45602,2.18078 -4.1528,3.02091 -1.4416,1.73823 -11.71882,8.62368 -18.92904,12.68195 -2.66317,1.49897 -6.63972,4.16141 -8.83678,5.91655 -2.19707,1.75514 -5.24761,3.7348 -6.77898,4.39926 -1.53137,0.66447 -4.07988,2.25989 -5.66326,3.5454 -2.78567,2.26161 -3.28741,2.32325 -15.49479,1.90398 -12.51528,-0.42983 -15.27419,-1.08583 -19.39487,-4.6116 -4.08806,-3.49785 -12.44673,-6.15258 -21.20432,-6.73453 -8.73579,-0.58049 -9.32876,-0.86626 -10.63398,-5.12486 -0.28015,-0.91408 -2.24773,-2.11494 -4.42778,-2.70236 -2.38595,-0.64292 -3.92358,-1.63042 -3.92358,-2.51981 0,-2.66269 4.89989,-6.08826 10.49734,-7.33882 8.45205,-1.88831 35.64615,-1.49102 45.18712,0.66016 4.26108,0.96073 8.7965,1.78504 10.07874,1.8318 1.83501,0.0669 8.51223,-6.31061 31.36485,-29.95694 15.96836,-16.52308 30.06302,-30.601 31.32139,-31.28428 1.25838,-0.68327 2.28801,-1.72064 2.28801,-2.30528 0,-0.58463 1.41632,-2.74146 3.14738,-4.79297 6.46831,-7.66572 8.47372,-10.36757 8.47372,-11.41661 0,-0.5931 0.39037,-1.07836 0.86742,-1.07836 0.47714,0 2.30911,-2.28949 4.07107,-5.08775 1.76205,-2.79826 5.51169,-7.62014 8.33262,-10.71529 2.82093,-3.09514 5.1251,-6.36584 5.12036,-7.26821 -0.01,-1.85947 -8.83853,7.32344 -13.79619,14.34939 -1.69242,2.39851 -5.43529,7.30456 -8.31752,10.90232 l -5.24034,6.5414 -5.92928,0.0982 c -9.29059,0.15385 -12.11181,-0.15171 -15.93041,-1.72535 -5.64079,-2.32457 -12.98746,-7.53058 -17.4241,-12.34711 -4.07359,-4.42229 -4.11232,-4.43859 -10.60542,-4.45353 -10.81499,-0.0249 -34.9821,-1.87752 -44.76974,-3.43204 -16.78583,-2.66599 -27.70637,-6.12244 -34.00606,-10.76321 -10.0624,-7.41264 -13.42007,-14.18791 -10.15096,-20.48303 1.05866,-2.0386 3.14522,-3.23859 9.44214,-5.4302 11.86215,-4.12857 29.52267,-11.21184 44.502,-17.84882 7.24713,-3.21104 14.94219,-6.31399 17.10014,-6.89547 2.15794,-0.58148 6.02575,-2.79564 8.59518,-4.92035 2.56943,-2.12472 5.52738,-3.86312 6.57328,-3.86312 1.0459,0 3.015,-1.05544 4.37574,-2.34541 3.52129,-3.33823 17.19981,-11.07998 36.96247,-20.91993 l 17.05669,-8.4927 -4.46716,-0.68862 c -2.45699,-0.37873 -8.0419,-0.97382 -12.41085,-1.32242 -4.36896,-0.34859 -8.48719,-1.17892 -9.15162,-1.84517 -0.66444,-0.66626 -2.14952,-1.21137 -3.3003,-1.21137 -1.15068,0 -3.754,-1.12848 -5.78499,-2.50774 -2.03108,-1.37926 -5.79941,-2.84098 -8.37407,-3.24826 -2.57475,-0.40729 -5.47499,-1.45928 -6.44497,-2.33774 -0.97007,-0.87847 -2.21643,-1.59721 -2.76969,-1.59721 -0.55336,0 -3.93055,-1.96242 -7.50491,-4.36093 -3.57427,-2.39851 -6.91766,-4.36093 -7.42976,-4.36093 -0.86907,0 -9.10428,-7.1351 -19.28494,-16.70872 -3.18177,-2.99205 -5.01492,-5.85093 -6.66655,-10.39679 -2.25699,-6.21205 -2.27383,-6.56126 -1.82365,-37.80675 l 0.45437,-31.53679 -4.25825,-2.65298 c -2.34204,-1.45913 -4.82624,-2.65297 -5.52044,-2.65297 -0.69421,0 -2.30149,-0.8122 -3.57175,-1.80488 -1.27025,-0.99269 -3.30182,-2.11603 -4.51458,-2.49633 -1.21275,-0.38029 -4.18085,-2.40269 -6.59577,-4.49423 -2.41491,-2.09154 -4.71477,-3.8028 -5.11077,-3.8028 -0.66123,0 -4.12375,-3.85712 -19.13755,-21.31844 -2.97811,-3.4636 -6.47289,-8.38705 -7.76618,-10.941 -1.29329,-2.55395 -3.86055,-6.62195 -5.70502,-9.04002 -1.84447,-2.41807 -3.35359,-4.84523 -3.35359,-5.39372 0,-0.54849 -1.08948,-2.29291 -2.42106,-3.87651 -1.331587,-1.58359 -2.422693,-3.60896 -2.424688,-4.50083 -0.0019,-0.89185 -0.799822,-2.92983 -1.772973,-4.52884 -0.973141,-1.59901 -2.088002,-4.18115 -2.477474,-5.73809 -0.389462,-1.55694 -1.552686,-3.90524 -2.584941,-5.21844 -1.032254,-1.3132 -1.876818,-3.81338 -1.876818,-5.55595 0,-1.74257 -1.086438,-6.37176 -2.414314,-10.28708 -1.327866,-3.91532 -2.417344,-8.17467 -2.421063,-9.4652 -0.0039,-1.29054 -0.703019,-3.11633 -1.554013,-4.05732 -0.851004,-0.941 -2.374482,-4.86386 -3.385509,-8.71746 -1.011036,-3.85362 -2.441178,-7.69703 -3.178082,-8.54092 -0.736913,-0.84389 -2.110586,-3.06068 -3.052603,-4.92619 -0.942016,-1.86551 -4.460064,-6.36603 -7.817885,-10.00116 C 59.536006,103.9284 54.346059,96.564468 54.325712,94.244938 54.317965,93.40357 51.884147,89.88057 48.916398,86.416054 42.723724,79.186788 28.757566,58.583009 24.380332,50.218844 c -4.815341,-9.201297 -3.513206,-13.226648 4.27861,-13.226648 3.480753,0 4.622575,0.499394 6.647282,2.907286 1.581255,1.88052 3.34898,2.907286 5.005287,2.907286 5.241196,0 54.103693,17.532115 62.262139,22.339971 1.76151,1.038076 4.03409,1.88741 5.05017,1.88741 1.01608,0 2.31388,0.872186 2.88399,1.938191 0.73419,1.372801 2.02771,1.93819 4.43427,1.93819 1.86875,0 7.40975,1.489625 12.31335,3.310284 4.9036,1.820659 10.87671,3.85008 13.27356,4.50983 2.39685,0.65976 5.88318,2.34774 7.7474,3.751077 1.86422,1.403328 6.44003,3.808816 10.16847,5.34553 10.61671,4.375775 28.94054,13.712319 38.38365,19.557629 4.7356,2.93136 11.36864,6.58136 14.74011,8.1111 12.4218,5.63622 31.48758,20.21255 33.10398,25.30897 0.41226,1.29964 1.49815,1.81863 3.80514,1.81863 4.76717,0 12.00014,5.90817 31.0236,25.34125 17.97572,18.36281 28.92067,31.43846 36.71582,43.86323 2.77425,4.42184 5.99736,9.25251 7.16257,10.73484 1.16521,1.48234 2.11853,3.07143 2.11853,3.53132 0,0.45989 1.5273,2.9635 3.39394,5.56358 6.3704,8.87326 17.91142,36.42889 17.91142,42.76579 0,1.17695 1.07795,3.42193 2.39559,4.98886 3.21856,3.82772 4.71991,9.91343 7.25583,29.41097 0.41594,3.19801 1.22806,6.9048 1.80486,8.23731 0.57669,1.3325 1.51035,6.97324 2.07466,12.53497 0.64109,6.31803 1.67469,11.22681 2.75478,13.08279 1.57621,2.70863 2.22922,2.99659 7.40574,3.2659 5.67662,0.29532 5.67769,0.29482 10.75224,-4.72013 4.77917,-4.72308 5.29225,-4.97991 8.79998,-4.40526 12.37338,2.02701 13.52542,1.94878 19.90996,-1.35194 3.34881,-1.73128 8.10823,-4.61853 10.57646,-6.41612 2.46813,-1.7976 4.77996,-3.26836 5.1373,-3.26836 0.35735,0 3.14923,-1.69851 6.20403,-3.77448 5.36304,-3.64443 8.86835,-6.88556 7.447,-6.88556 -1.28791,0 -13.58895,7.14529 -14.30365,8.30858 -0.39153,0.63727 -4.80126,2.95339 -9.7994,5.14691 -7.78275,3.41561 -10.05303,3.98822 -15.81225,3.98822 -6.15851,0 -6.95165,-0.23699 -9.4193,-2.81444 l -2.69455,-2.81443 -6.38783,6.20627 c -3.51325,3.41344 -7.24033,6.20627 -8.28245,6.20627 -1.49409,0 -1.21819,-0.46111 1.30495,-2.18047 1.75982,-1.19925 3.67643,-3.05092 4.25904,-4.11482 0.5826,-1.0639 2.17547,-3.46242 3.53969,-5.33003 2.21827,-3.03671 2.81744,-6.79842 1.08018,-6.78087 -0.36045,0.004 -1.64865,1.42094 -2.86257,3.14956 -3.70248,5.27202 -8.89392,10.77 -9.54974,10.11371 -0.34098,-0.34124 0.93947,-2.34771 2.84543,-4.45883 2.37729,-2.63319 4.12733,-6.06271 5.57358,-10.92249 1.88601,-6.3373 2.01006,-8.00407 1.17673,-15.81139 l -0.93162,-8.7273 -0.14837,7.87669 c -0.16657,8.84841 -1.46774,12.65069 -6.22397,18.18832 -3.80949,4.43523 -6.96579,4.59161 -3.49253,0.17304 3.18893,-4.05685 6.60708,-22.4324 6.63836,-35.68673 0.0136,-5.72978 -0.36819,-10.41777 -0.84814,-10.41777 -0.87962,0 -2.93879,3.16003 -7.92957,12.169 -2.84698,5.13922 -5.07406,11.05228 -6.57367,17.45392 -0.8925,3.80985 -0.89269,3.80938 -0.99002,-1.77963 -0.0649,-3.74403 0.72399,-7.90508 2.3892,-12.59824 1.36761,-3.85426 2.66104,-7.82869 2.87438,-8.83208 0.37527,-1.76455 1.21218,-3.48144 6.60796,-13.55541 1.39046,-2.59583 2.31057,-5.07179 2.04473,-5.50213 -0.26573,-0.43035 -3.74538,0.95781 -7.73258,3.0848 -3.98711,2.12698 -7.2385,3.51271 -7.22523,3.0794 0.0136,-0.43331 2.88184,-3.62245 6.37466,-7.08697 6.06031,-6.01125 8.48408,-9.51587 19.34071,-27.96575 2.90538,-4.93751 7.1251,-10.31215 10.80937,-13.76782 7.98564,-7.49024 14.49026,-9.63454 29.16394,-9.61415 12.34694,0.0171 20.07169,1.68827 29.29904,6.33831 l 6.87824,3.46623 17.57111,-17.31004 c 20.01358,-19.71627 28.33836,-26.89121 34.03696,-29.33562 2.19048,-0.9396 4.71061,-2.82004 5.60021,-4.17875 3.41389,-5.21385 29.84745,-21.13427 57.34473,-34.53765 19.46671,-9.48892 27.41341,-12.6283 34.50536,-13.63143 3.51432,-0.4971 6.79505,-1.69093 8.79262,-3.19957 9.95619,-7.51954 77.50822,-29.50104 83.54122,-27.184389 2.7882,1.070666 1.39328,8.804095 -2.42464,13.442649 -0.8774,1.06601 -2.17344,3.46452 -2.88,5.33002 -0.70657,1.86551 -1.77639,4.04598 -2.37739,4.84548 -0.6011,0.7995 -1.71256,2.76192 -2.47007,4.36093 -0.7575,1.59901 -3.37816,5.52384 -5.82372,8.72186 -2.44557,3.19802 -4.73153,6.56876 -5.07988,7.49055 -0.34834,0.92178 -3.04724,4.88544 -5.99765,8.80812 -2.9504,3.92269 -5.3644,7.57086 -5.3644,8.10706 0,0.5362 -0.87158,1.76421 -1.93685,2.72894 -1.06527,0.96472 -1.93685,2.21349 -1.93685,2.77503 0,1.47396 -8.68455,9.5443 -13.14541,12.21574 -2.09112,1.25228 -4.89151,3.21798 -6.2231,4.36821 -1.33158,1.15025 -4.38212,2.90415 -6.77898,3.89758 -2.39685,0.99343 -4.8427,2.38267 -5.43509,3.0872 -0.59248,0.70454 -1.37865,4.60949 -1.74704,8.67768 -0.66618,7.35636 -3.65581,15.04538 -8.54277,21.9712 -1.05684,1.49781 -2.9691,5.61325 -4.24936,9.14541 -1.28035,3.53215 -3.38881,8.23375 -4.68553,10.44797 -3.72844,6.36653 -11.93543,15.5651 -15.33082,17.18303 -15.91462,7.58352 -26.87904,13.2836 -29.10041,15.1284 -0.82926,0.68872 -2.14768,1.3462 -2.92988,1.46109 -0.78219,0.11488 -4.43384,4.11332 -8.11492,8.88545 -6.37621,8.26628 -10.89614,17.81548 -10.89614,23.02025 0,3.42218 -3.21692,15.68225 -4.52051,17.22823 -0.70957,0.84148 -1.29004,2.00491 -1.29004,2.58539 0,1.78693 -4.96783,11.25188 -7.24993,13.81293 -1.18729,1.3325 -3.27647,4.3448 -4.64263,6.69398 -3.82702,6.58104 -15.32523,17.77026 -21.82172,21.23525 -3.70239,1.97471 -7.15938,3.08181 -9.62315,3.08181 -7.96433,0 -12.3513,1.07615 -13.39313,3.28548 -1.54444,3.27477 0.14265,7.79368 4.01238,10.74726 1.90063,1.45068 3.28325,2.81014 3.07253,3.021 -0.70492,0.70547 -10.39673,-2.57953 -10.39673,-3.52395 0,-0.51235 -0.43579,-0.93155 -0.96843,-0.93155 -4.38764,0 6.4012,20.4056 16.18181,30.60595 6.93809,7.23581 12.56038,10.01009 23.36462,11.52911 l 8.39063,1.1797 -8.23161,0.42983 c -6.65754,0.34765 -9.15753,0.0614 -13.07375,-1.49733 -5.67448,-2.25844 -13.82911,-8.00416 -17.07982,-12.03445 -2.09674,-2.59948 -6.6466,-5.74754 -6.6466,-4.59876 0,1.32764 3.66714,8.3152 6.39248,12.18067 5.48797,7.78368 9.48854,16.39066 9.38114,20.18297 -0.0552,1.95199 0.1473,3.95036 0.45022,4.44082 0.86877,1.40666 0.20579,13.55404 -0.79556,14.57611 -0.49603,0.50635 -0.9019,1.62959 -0.9019,2.49609 0,0.86649 -1.08948,2.59965 -2.42106,3.85148 -3.48498,3.27623 -3.22873,0.3726 0.48421,-5.48609 2.28248,-3.60164 2.90528,-5.68078 2.90528,-9.69939 0,-8.43211 -7.37679,-24.49912 -14.26965,-31.08013 -1.25102,-1.19448 -3.34165,-4.46518 -4.64573,-7.26822 -3.49554,-7.51343 -2.89899,-4.31355 0.99951,5.36127 4.69008,11.6392 4.70964,18.36246 0.0794,27.25152 -4.35879,8.36819 -11.70497,16.68626 -21.97377,24.8809 -10.96645,8.75132 -13.78321,11.99374 -21.43455,24.67359 -3.52293,5.8382 -8.86293,13.88561 -11.86669,17.88312 -6.21468,8.27068 -6.42435,10.46222 -1.57563,16.4707 5.50211,6.81825 10.86931,6.01029 23.47347,-3.53365 12.61907,-9.55516 20.11206,-11.48149 18.85805,-4.84807 -0.31774,1.68059 -1.65271,5.17534 -2.96667,7.76612 -2.24782,4.43225 -2.35328,5.33384 -1.78559,15.26325 0.40209,7.03177 0.26816,10.55275 -0.40141,10.55275 -0.94102,0 -1.35657,2.34325 -2.73222,15.4082 -0.59393,5.64087 -4.78179,14.95808 -8.05129,17.91283 -1.11098,1.00398 -1.80244,2.1776 -1.5366,2.60803 0.26583,0.43043 -3.15543,2.56155 -7.60273,4.73582 -6.93102,3.38851 -12.29474,7.84917 -12.29474,10.22479 0,0.31636 -1.08948,2.17962 -2.42106,4.14059 -1.33159,1.96095 -2.42106,4.25606 -2.42106,5.10024 0,2.60553 -9.8517,12.49025 -13.4647,13.50979 -4.58114,1.29277 -12.89585,1.33839 -20.91441,0.11473 -8.35305,-1.27469 -19.93174,-1.37232 -22.93706,-0.19339 -1.23309,0.48371 -6.3183,4.78139 -11.30036,9.55039 -7.19424,6.88654 -10.70933,9.44768 -17.08119,12.44558 -4.96037,2.33378 -8.71118,4.79824 -9.82603,6.45612 -2.06681,3.07377 -12.06048,10.4013 -14.18578,10.4013 -0.7823,0 -1.89657,0.57186 -2.47627,1.27087 -1.53844,1.85504 -8.70023,1.73013 -13.61403,-0.23743 z M 402.63693,461.91354 c 1.14719,-0.24625 4.26049,-2.1679 6.91843,-4.27033 2.65794,-2.10243 5.16655,-3.52197 5.57474,-3.15451 0.40829,0.36746 0.42872,0.12298 0.0455,-0.54327 -0.38311,-0.66625 -0.23514,-1.21137 0.32897,-1.21137 0.56411,0 1.0123,-1.4173 0.99612,-3.14956 -0.0242,-2.60886 -0.19891,-2.85841 -1.01655,-1.45364 -0.5429,0.93275 -1.60381,1.69592 -2.35754,1.69592 -0.75372,0 -1.85221,0.90083 -2.44101,2.00185 -1.30399,2.43809 -7.54481,5.22368 -13.79212,6.15613 -5.60186,0.8361 -13.92354,-0.72717 -20.51561,-3.85398 -2.64264,-1.25348 -4.9781,-2.10563 -5.18989,-1.89368 -0.84902,0.84962 3.94633,6.31153 5.54133,6.31153 0.94015,0 2.02604,0.32707 2.41303,0.72682 2.62123,2.70772 16.11285,4.22263 23.49458,2.63809 z m 30.25584,-36.23342 c -7.34164,-2.34854 -23.09618,-12.71952 -28.55955,-18.8003 -4.75845,-5.29622 -9.69975,-14.34142 -12.49336,-22.8694 -2.53282,-7.73203 -8.48312,-18.89123 -11.89217,-22.30268 -3.26534,-3.26753 -10.2718,-6.70027 -15.95452,-7.81675 -1.99738,-0.39242 -3.6316,-0.58378 -3.6316,-0.42525 0,0.15853 3.59528,2.11204 7.98951,4.34111 4.39423,2.22907 8.5204,4.4812 9.16925,5.00473 1.45603,1.17483 6.14127,9.40042 6.57474,11.54288 0.1747,0.86392 1.38078,3.69853 2.67992,6.29912 1.29924,2.6006 2.65387,5.94009 3.01045,7.42109 0.35648,1.48099 2.66985,5.62387 5.14079,9.20641 2.47094,3.58252 5.76068,8.36975 7.31045,10.63829 3.41893,5.00465 11.93739,12.09634 18.59125,15.47744 5.92337,3.00986 8.51391,3.75322 13.6056,3.90416 3.88542,0.1152 3.88503,0.11484 -1.54076,-1.62085 z m 42.39214,-42.53035 c -4.55789,-5.56214 -7.6953,-8.32914 -12.33851,-10.88159 -7.01712,-3.85741 -15.7835,-10.17307 -19.08128,-13.74687 -2.5547,-2.7686 -4.05082,-7.35943 -4.19279,-12.86588 l -0.10004,-3.88277 -0.96194,3.62308 c -0.74762,2.81591 -0.58561,4.82051 0.72748,8.99782 2.15417,6.85345 9.19791,13.54553 19.59967,18.62118 7.37408,3.59822 11.48873,7.0432 17.46062,14.61877 1.76825,2.24309 3.61639,3.83009 4.1069,3.52668 0.4906,-0.3034 -1.85841,-3.9081 -5.22011,-8.01042 z m -14.23847,-38.31562 c 2.14778,-2.84669 3.90508,-5.89934 3.90508,-6.78366 0,-0.88432 0.33672,-1.60786 0.74821,-1.60786 1.27541,0 3.91408,-5.95624 6.17855,-13.94671 2.12153,-7.48651 2.13228,-7.7808 0.50968,-13.97164 -1.52372,-5.8137 -3.31395,-9.47925 -4.19764,-8.59494 -0.19746,0.19755 0.3407,2.03494 1.19591,4.08308 1.13752,2.72429 1.46165,5.9509 1.20763,12.02021 -0.31881,7.61772 -0.72748,9.06561 -4.9964,17.70155 -2.75323,5.5696 -6.00511,10.59651 -7.97392,12.32635 -3.66975,3.22432 -4.01925,3.94944 -1.90344,3.94944 0.78172,0 3.17857,-2.32912 5.32634,-5.17582 z m -3.38242,-21.50567 c 2.19814,-10.6491 0.63568,-20.07286 -5.14795,-31.05007 -1.53089,-2.90547 -2.01549,-3.31816 -2.04812,-1.74418 -0.0232,1.13398 0.61088,2.60468 1.40983,3.26821 0.79895,0.66353 1.45264,1.93799 1.45264,2.83212 0,0.89415 0.37149,2.04001 0.82568,2.54636 3.38765,3.77748 3.77269,22.2234 0.64613,30.96259 -0.76273,2.13201 -1.37042,4.53052 -1.35028,5.33003 0.0717,2.8601 2.64826,-4.56892 4.21207,-12.14506 z m 28.01423,3.84107 c 1.40441,-2.96818 3.0118,-8.69427 3.57204,-12.72464 1.16017,-8.34722 -0.26245,-16.88197 -4.71721,-28.30027 -2.06022,-5.28073 -2.50676,-8.08148 -2.56439,-16.08503 -0.0416,-5.818 0.46243,-11.29597 1.26196,-13.70704 1.09829,-3.31208 1.11737,-4.92594 0.10866,-9.2064 -1.22981,-5.219 -6.04714,-15.86366 -7.46075,-16.48569 -0.4172,-0.18358 -2.66588,-2.64072 -4.99698,-5.46032 -2.3312,-2.8196 -4.43336,-4.93157 -4.67149,-4.69326 -0.83488,0.83549 2.4842,5.97596 6.02757,9.33526 6.52303,6.18408 8.59769,10.37807 8.62906,17.44371 0.0155,3.46452 -0.63722,9.13372 -1.45012,12.59824 -2.20375,9.39195 -1.13606,18.43392 3.7725,31.94755 3.27086,9.00493 4.03621,12.37798 4.03621,17.78837 0,6.64821 -2.24811,17.75341 -3.94876,19.50593 -0.87284,0.89949 -1.25876,3.44029 -0.52256,3.44029 0.20395,0 1.51994,-2.42851 2.92426,-5.3967 z m -39.21058,-3.51607 c 2.85715,-3.88787 2.98905,-4.48385 2.98905,-13.51014 0,-5.19356 -0.37953,-9.67755 -0.84341,-9.96442 -0.46378,-0.28687 -1.12734,-1.94282 -1.47452,-3.6799 -1.05345,-5.27082 -6.35655,-14.50178 -11.60358,-20.1978 -7.26948,-7.89162 -10.36399,-11.66625 -12.49976,-15.24712 -1.04677,-1.75502 -2.10613,-2.98788 -2.35414,-2.7397 -0.6747,0.67515 7.04868,11.73354 13.95482,19.98062 7.19675,8.59427 13.86368,23.54773 13.85642,31.07933 0,5.38245 -2.38358,13.79594 -4.36527,15.44168 -1.33711,1.11052 -1.98518,2.90475 -1.0491,2.90475 0.22022,0 1.74549,-1.83029 3.38949,-4.0673 z m 2.36838,-38.54308 c -0.93424,-1.58261 -1.84262,-2.73332 -2.01868,-2.55714 -0.66938,0.66976 1.67169,5.43461 2.67014,5.43461 0.6043,0 0.32878,-1.21687 -0.65146,-2.87747 z m -9.20934,-14.80852 c -5.58897,-8.34121 -17.59028,-25.26351 -19.36541,-27.3058 -0.4292,-0.49388 -0.60197,0.0294 -0.38388,1.16266 0.38727,2.01255 3.43016,6.75955 6.33708,9.88616 0.79896,0.85934 2.32423,2.8057 3.38949,4.32524 1.06527,1.51955 3.06294,4.11717 4.43927,5.77249 1.37623,1.65533 3.3307,4.53602 4.34329,6.40153 1.68777,3.1096 6.13952,8.72185 6.91843,8.72185 0.18042,0 -2.37487,-4.03386 -5.67827,-8.96413 z"
       id="path3590"
       inkscape:connector-curvature="0" />
  </g>
</svg>
